# xmcd CD database file generated by LOLA_Freedb v0.9beta0
# 
# Track frame offsets:
#      150
#      22000
#      36705
#      56182
#      69687
#      84892
#      100412
#      112590
#      126970
#      141757
#      155905
#      177407
#      192342
#      205672
#      218715
#      232047
#      248170
#      261755
#      279965
# 
# Disc length: 3907 seconds
# 
# Revision: 3 
# Processed by: cddbd v1.5.2PL0 Copyright (c) Steve Scherf et al.
# Submitted via: LOLA_Freedb v0.9beta0
# 
DISCID=1d0f4113
DTITLE=Various Artist - 19 Hot Country Requests
DYEAR=1985
DGENRE=Country
TTITLE0=Merle Haggard - Going Where The Lonely Go
TTITLE1=Mickey Gilley - Talk To Me
TTITLE2=Willie Nelson - Last Thing I Needed First Thing This Morning
TTITLE3=Ricky Skaggs - I Wouldn't Change You If I Could
TTITLE4=George Jones - Shine On Shine All Your Sweet Love On Me
TTITLE5=BJ Thomas - Whatever Happened To Old Fashioned Love
TTITLE6=Merle Haggard - You Take Me For Granted
TTITLE7=David Allan Coe - The Ride
TTITLE8=Mickey Gilley - Fool For Your Love
TTITLE9=Ricky Skaggs - Highway 40 Blues
TTITLE10=Merle Haggard and Willie Nelson - Pancho and Lefty
TTITLE11=George Jones - I Always Get Lucky With You
TTITLE12=Janie Fricke - He's A Heartache Looking For A Place To Happen
TTITLE13=Ronnie McDowell - You're Gonna Ruin My Bad Reputation
TTITLE14=BJ Thomas - New Looks From An Old Lover
TTITLE15=Merle Haggard - What Am I Gonna Do With The Rest Of My Life
TTITLE16=Charly McClain - Paradise Tonight
TTITLE17=Janie Fricke - Tell Me A Lie
TTITLE18=Larry Gatlin and The Gatlin Brothers Band - Houston Means I'm One Day Closer To You
EXTD=
EXTT0=
EXTT1=
EXTT2=
EXTT3=
EXTT4=
EXTT5=
EXTT6=
EXTT7=
EXTT8=
EXTT9=
EXTT10=
EXTT11=
EXTT12=
EXTT13=
EXTT14=
EXTT15=
EXTT16=
EXTT17=
EXTT18=
PLAYORDER=
